<?xml version="1.0" encoding="utf-8"?>
<!-- Svg Vector Icons : http://www.onlinewebfonts.com/icon -->
<!DOCTYPE svg PUBLIC "-//W3C//DTD SVG 1.1//EN" "http://www.w3.org/Graphics/SVG/1.1/DTD/svg11.dtd">
<svg version="1.1" xmlns="http://www.w3.org/2000/svg" xmlns:xlink="http://www.w3.org/1999/xlink" x="0px" y="0px" viewBox="0 0 256 256" enable-background="new 0 0 256 256" xml:space="preserve">
<metadata> Svg Vector Icons : http://www.onlinewebfonts.com/icon </metadata>
<g><g><path fill="#000000" d="M57.3,75.2l-10.4-4.9l6.7,14.1l-7.9,17.1l11-6.1l13.5,17.7l-2.5-22l12.9-6.7l-12.9-5.5l1.8-19L57.3,75.2z M96.7,243.9C46.5,230.3,10,184.6,10,130.1c0-65.2,52.8-118,118-118c65.2,0,118,52.8,118,118c0,31.5-12.3,60-32.4,81.2c0,0-8.2-10.6-10.7-14.3c-2.5-3.7-6.1-4.1-5.5-9.2c0.7-6.1,5.5-12.2,5.5-12.2l1.2,4.9c0,0,34.4-36.1,30.6-60.6c-2.5-15.9-12.2-17.7-12.2-17.7s2.5-14.7-20.2-25.7c-22.6-11-39.8-9.2-39.8-9.2l9.8,7.3c0,0-11.8-2.1-17.7-0.6c-4.9,1.2-4.9,1.2-4.9,1.2l6.4,3.1c0,0-12.9,0.6-21.6,7.3c-6.8,5.3-7.3,8.6-7.3,8.6h4.9c0,0-4.3,7.3-5.5,14.7c-1.2,7.3-0.7,9.3-0.7,9.3s0,3.4-6.2,8c-4.5,3.3-9,4.1-10.3,6c-2.1,2.8,4.4,7.3,4.4,7.3s-0.5,3.3-3.4,7c-1.4,1.7,3.4,4.6,5.1,5.3l-3.9,3.2c0,0-1.4,1.4,0.9,3c2.3,1.6,1.4,5.1,0.5,8.7c-0.9,3.7-2.7,9.4,9.6,10.8c12.4,1.4,13.1,3.7,14.2,5.3c1.2,1.6,8.3,21.8,4.6,25c-5.1,4.4-13.9,3.1-31,14.7C97.3,231.1,96.7,243.9,96.7,243.9"/><path fill="#000000" d="M136.1,113.3c0,0,4.1,6.2,5.7,7.3s2.1,2.7,0.9,3c-1.2,0.2-9.2,0-9.2,0l0.5-1.4c0,0-0.7-1.8,0-3.7c0.7-1.8,2.5-2.5,2.5-2.5L136.1,113.3"/></g></g>
</svg>